<svg width="337" height="146" viewBox="0 0 337 146" fill="none" xmlns="http://www.w3.org/2000/svg">
<path d="M20.4639 94.4199C24.4417 94.4199 27.8382 95.1237 30.6533 96.5312C33.4684 97.9388 35.6257 99.8206 37.125 102.177C38.6243 104.502 39.374 107.088 39.374 109.934H30.8828C30.8828 108.557 30.4697 107.226 29.6436 105.94C28.848 104.625 27.6699 103.538 26.1094 102.682C24.5794 101.825 22.6976 101.396 20.4639 101.396C18.1077 101.396 16.1953 101.764 14.7266 102.498C13.2884 103.202 12.2327 104.104 11.5596 105.206C10.917 106.308 10.5957 107.47 10.5957 108.694C10.5957 109.612 10.7487 110.438 11.0547 111.173C11.3913 111.877 11.9727 112.535 12.7988 113.146C13.625 113.728 14.7878 114.279 16.2871 114.799C17.7865 115.319 19.6989 115.839 22.0244 116.359C26.0941 117.277 29.4447 118.379 32.0762 119.664C34.7077 120.949 36.666 122.525 37.9512 124.392C39.2363 126.258 39.8789 128.522 39.8789 131.185C39.8789 133.357 39.4199 135.346 38.502 137.151C37.6146 138.957 36.3141 140.517 34.6006 141.833C32.9176 143.118 30.8981 144.128 28.542 144.862C26.2165 145.566 23.6003 145.918 20.6934 145.918C16.3177 145.918 12.6152 145.138 9.58594 143.577C6.55664 142.017 4.26172 139.997 2.70117 137.519C1.14062 135.04 0.360352 132.424 0.360352 129.67H8.89746C9.01986 131.995 9.69303 133.847 10.917 135.224C12.141 136.57 13.6403 137.534 15.415 138.115C17.1898 138.666 18.9492 138.941 20.6934 138.941C23.0189 138.941 24.9619 138.635 26.5225 138.023C28.1136 137.411 29.3223 136.57 30.1484 135.499C30.9746 134.428 31.3877 133.204 31.3877 131.827C31.3877 130.603 31.1123 129.471 30.5615 128.431C30.0413 127.36 28.9551 126.396 27.3027 125.539C25.681 124.652 23.2331 123.887 19.959 123.244C17.2051 122.663 14.7113 121.974 12.4775 121.179C10.2744 120.383 8.39258 119.419 6.83203 118.287C5.30208 117.155 4.12402 115.824 3.29785 114.294C2.47168 112.764 2.05859 110.974 2.05859 108.924C2.05859 106.965 2.48698 105.114 3.34375 103.37C4.23112 101.626 5.47038 100.081 7.06152 98.7344C8.68327 97.388 10.6263 96.3324 12.8906 95.5674C15.1549 94.8024 17.6794 94.4199 20.4639 94.4199ZM72.8193 94.4199C76.3076 94.4199 79.444 95.0625 82.2285 96.3477C85.0436 97.6022 87.4303 99.377 89.3887 101.672C91.3776 103.936 92.8923 106.614 93.9326 109.704C94.973 112.764 95.4932 116.084 95.4932 119.664V120.72C95.4932 124.3 94.973 127.62 93.9326 130.68C92.8923 133.74 91.3776 136.417 89.3887 138.712C87.4303 140.976 85.0589 142.751 82.2744 144.036C79.5205 145.291 76.3994 145.918 72.9111 145.918C69.4229 145.918 66.2865 145.291 63.502 144.036C60.7174 142.751 58.3307 140.976 56.3418 138.712C54.3835 136.417 52.8841 133.74 51.8438 130.68C50.8034 127.62 50.2832 124.3 50.2832 120.72V119.664C50.2832 116.084 50.8034 112.764 51.8438 109.704C52.8841 106.614 54.3835 103.936 56.3418 101.672C58.3001 99.377 60.6715 97.6022 63.4561 96.3477C66.2406 95.0625 69.3617 94.4199 72.8193 94.4199ZM140.307 127.467C140.307 129.701 140.551 131.552 141.041 133.021C141.561 134.459 142.25 135.606 143.106 136.463C143.994 137.289 144.973 137.87 146.044 138.207C147.146 138.544 148.278 138.712 149.44 138.712C153.051 138.712 155.912 138.023 158.023 136.646C160 135.329 161.453 133.596 162.384 131.447V95.3379H170.921V145H162.797L162.619 140.085C161.168 141.811 159.346 143.19 157.151 144.22C154.673 145.352 151.659 145.918 148.109 145.918C145.692 145.918 143.474 145.566 141.454 144.862C139.465 144.159 137.752 143.072 136.313 141.604C134.875 140.135 133.758 138.222 132.963 135.866C132.198 133.51 131.815 130.68 131.815 127.375V95.3379H140.307V127.467ZM196.885 95.3379H206.156V101.855H196.885V132.699C196.885 134.382 197.145 135.652 197.665 136.509C198.185 137.366 198.858 137.932 199.685 138.207C200.511 138.482 201.398 138.62 202.347 138.62C203.05 138.62 203.785 138.559 204.55 138.437C205.345 138.284 205.942 138.161 206.34 138.069L206.386 145C205.713 145.214 204.825 145.413 203.724 145.597C202.653 145.811 201.352 145.918 199.822 145.918C197.742 145.918 195.829 145.505 194.085 144.679C192.341 143.853 190.949 142.476 189.908 140.548C188.898 138.59 188.394 135.958 188.394 132.653V101.855H179.306V95.3379H188.394V83.2666H196.885V95.3379ZM262.261 94.4199C265.749 94.4199 268.885 95.0625 271.67 96.3477C274.485 97.6022 276.872 99.377 278.83 101.672C280.819 103.936 282.334 106.614 283.374 109.704C284.414 112.764 284.935 116.084 284.935 119.664V120.72C284.935 124.3 284.414 127.62 283.374 130.68C282.334 133.74 280.819 136.417 278.83 138.712C276.872 140.976 274.5 142.751 271.716 144.036C268.962 145.291 265.841 145.918 262.353 145.918C258.864 145.918 255.728 145.291 252.943 144.036C250.159 142.751 247.772 140.976 245.783 138.712C243.825 136.417 242.326 133.74 241.285 130.68C240.245 127.62 239.725 124.3 239.725 120.72V119.664C239.725 116.084 240.245 112.764 241.285 109.704C242.326 106.614 243.825 103.936 245.783 101.672C247.742 99.377 250.113 97.6022 252.897 96.3477C255.682 95.0625 258.803 94.4199 262.261 94.4199ZM116.867 145H108.33V74.5H116.867V145ZM226.842 145H218.305V95.3379H226.842V145ZM320.216 94.4199C322.664 94.4199 324.867 94.7565 326.825 95.4297C328.784 96.0723 330.451 97.1126 331.828 98.5508C333.236 99.9889 334.307 101.855 335.041 104.15C335.775 106.415 336.143 109.184 336.143 112.458V145H327.605V112.366C327.605 109.765 327.223 107.685 326.458 106.124C325.693 104.533 324.576 103.385 323.107 102.682C321.639 101.947 319.833 101.58 317.691 101.58C315.58 101.58 313.652 102.024 311.908 102.911C310.195 103.799 308.711 105.022 307.456 106.583C306.739 107.497 306.113 108.49 305.574 109.562V145H297.083V95.3379H305.115L305.382 101.518C305.475 101.4 305.57 101.283 305.666 101.167C307.441 99.0251 309.552 97.3727 312 96.21C314.479 95.0166 317.217 94.4199 320.216 94.4199ZM72.8193 101.396C70.4938 101.396 68.4437 101.886 66.6689 102.865C64.9248 103.844 63.4561 105.191 62.2627 106.904C61.0999 108.587 60.2279 110.53 59.6465 112.733C59.0651 114.906 58.7744 117.216 58.7744 119.664V120.72C58.7744 123.198 59.0651 125.539 59.6465 127.742C60.2279 129.915 61.0999 131.842 62.2627 133.525C63.4561 135.208 64.9401 136.539 66.7148 137.519C68.4896 138.467 70.555 138.941 72.9111 138.941C75.2367 138.941 77.2715 138.467 79.0156 137.519C80.7904 136.539 82.2591 135.208 83.4219 133.525C84.5846 131.842 85.4567 129.915 86.0381 127.742C86.6501 125.539 86.9561 123.198 86.9561 120.72V119.664C86.9561 117.216 86.6501 114.906 86.0381 112.733C85.4567 110.53 84.5693 108.587 83.376 106.904C82.2132 105.191 80.7445 103.844 78.9697 102.865C77.2256 101.886 75.1755 101.396 72.8193 101.396ZM262.261 101.396C259.935 101.396 257.885 101.886 256.11 102.865C254.366 103.844 252.897 105.191 251.704 106.904C250.541 108.587 249.669 110.53 249.088 112.733C248.507 114.906 248.216 117.216 248.216 119.664V120.72C248.216 123.198 248.507 125.539 249.088 127.742C249.669 129.915 250.541 131.842 251.704 133.525C252.897 135.208 254.382 136.539 256.156 137.519C257.931 138.467 259.996 138.941 262.353 138.941C264.678 138.941 266.713 138.467 268.457 137.519C270.232 136.539 271.701 135.208 272.863 133.525C274.026 131.842 274.898 129.915 275.479 127.742C276.091 125.539 276.397 123.198 276.397 120.72V119.664C276.397 117.216 276.091 114.906 275.479 112.733C274.898 110.53 274.011 108.587 272.817 106.904C271.655 105.191 270.186 103.844 268.411 102.865C266.667 101.886 264.617 101.396 262.261 101.396ZM222.665 77.2539C224.287 77.2539 225.526 77.7282 226.383 78.6768C227.27 79.6253 227.714 80.7881 227.714 82.165C227.714 83.4808 227.27 84.613 226.383 85.5615C225.526 86.4795 224.287 86.9385 222.665 86.9385C221.013 86.9385 219.758 86.4795 218.901 85.5615C218.075 84.613 217.662 83.4808 217.662 82.165C217.662 80.7881 218.075 79.6253 218.901 78.6768C219.758 77.7282 221.013 77.2539 222.665 77.2539ZM126.871 0C134.039 2.12956e-05 139.831 1.31254 144.247 3.93652C148.663 6.49653 152.087 10.5927 154.519 16.2246L139.255 22.2725C138.423 19.0085 136.951 16.64 134.839 15.168C132.727 13.6961 130.103 12.96 126.967 12.96C123.831 12.96 121.143 13.7287 118.903 15.2646C116.663 16.7366 114.966 18.9447 113.814 21.8887C112.663 24.7686 112.087 28.3529 112.087 32.6406C112.087 37.1203 112.663 40.8642 113.814 43.8721C115.03 46.8801 116.791 49.1208 119.095 50.5928C121.463 52.0007 124.375 52.7041 127.831 52.7041C129.687 52.7041 131.383 52.4802 132.919 52.0322C134.455 51.5842 135.799 50.9443 136.951 50.1123C138.103 49.2164 138.999 48.1284 139.639 46.8486C140.279 45.5047 140.599 43.9364 140.599 42.1445V41.1846H126.103V30.1445H154.615V64.3203H143.383L142.721 56.4346C141.388 58.594 139.657 60.3912 137.527 61.8242C134.071 64.1282 129.591 65.2803 124.087 65.2803C118.455 65.2803 113.431 64.0321 109.015 61.5361C104.663 59.0401 101.271 55.36 98.8389 50.4961C96.4069 45.6321 95.1904 39.7122 95.1904 32.7363C95.1904 25.8883 96.4713 20.032 99.0312 15.168C101.591 10.3043 105.239 6.56044 109.975 3.93652C114.775 1.31252 120.407 0 126.871 0ZM248.744 0C254.632 0 259.817 0.928181 264.297 2.78418C268.841 4.57615 272.777 7.23212 276.104 10.752L268.137 21.4082C265.385 18.5282 262.408 16.3846 259.208 14.9766C256.072 13.5046 252.488 12.7686 248.456 12.7686C246.088 12.7686 244.168 13.0242 242.696 13.5361C241.224 14.0481 240.168 14.7525 239.528 15.6484C238.888 16.5444 238.568 17.5688 238.568 18.7207C238.568 20.0645 239.177 21.2169 240.393 22.1768C241.673 23.0726 243.72 23.8405 246.536 24.4805L257.192 26.8799C263.528 28.3519 268.168 30.4965 271.112 33.3125C274.056 36.1284 275.528 39.8721 275.528 44.5439C275.528 49.0239 274.376 52.8327 272.072 55.9688C269.768 59.0406 266.6 61.3766 262.568 62.9766C258.536 64.5125 253.928 65.2803 248.744 65.2803C244.52 65.2803 240.488 64.8325 236.648 63.9365C232.808 62.9765 229.352 61.6323 226.28 59.9043C223.208 58.1763 220.617 56.1921 218.505 53.9521L226.473 42.9121C228.073 44.7681 230.024 46.4323 232.328 47.9043C234.696 49.3123 237.257 50.4326 240.009 51.2646C242.825 52.0966 245.673 52.5127 248.553 52.5127C250.793 52.5127 252.648 52.2878 254.12 51.8398C255.656 51.3918 256.776 50.7202 257.48 49.8242C258.184 48.9282 258.536 47.8722 258.536 46.6562C258.536 45.3123 258.057 44.1919 257.097 43.2959C256.137 42.3359 254.312 41.5365 251.624 40.8965L239.912 38.3047C236.328 37.4727 233.128 36.384 230.312 35.04C227.561 33.6321 225.384 31.7766 223.784 29.4727C222.184 27.1047 221.385 24.1605 221.385 20.6406C221.385 16.6726 222.472 13.1521 224.648 10.0801C226.824 6.94416 229.961 4.48044 234.057 2.68848C238.153 0.896543 243.048 2.96029e-05 248.744 0ZM16.5117 64.3203H0V0.959961H16.5117V64.3203ZM66.6582 35.2324L71.459 44.6406H71.5547L71.1709 32.9287V0.959961H85.7627V64.3203H67.4268L47.7471 30.0479L42.9463 20.6406H42.8506L43.2344 32.3525V64.3203H28.6426V0.959961H46.9785L66.6582 35.2324ZM214.678 13.7285H181.846V26.5928H207.958V38.5928H181.846V51.5527H215.926V64.3203H165.334V0.959961H214.678V13.7285ZM335.992 13.7285H315.353V64.3203H298.841V13.7285H278.104V0.959961H335.992V13.7285Z" fill="black"/>
</svg>
